
<svg xmlns="http://www.w3.org/2000/svg" viewBox="0 0 822.3094010767585 330" width="822.3094010767585" height="330"><rect x="0" y="0" width="822.3094010767585" height="330" fill="white"></rect><g transform="translate(25 25)"><g><g><line x1="0" y1="40" x2="770" y2="40" stroke="black" stroke-width="2"></line><polyline points="760,34.226497308103745 770,40 760,45.773502691896255" fill="none" stroke="black" stroke-width="2" stroke-linecap="square"></polyline></g><g transform="translate(689 0)"><line x1="0" y1="15" x2="0" y2="65" stroke="black" stroke-width="2"></line></g><g transform="translate(440 0)"><ellipse cx="40" cy="40" rx="39" ry="39" fill="hsl(193, 60%, 80%)" stroke="black" stroke-width="2"></ellipse><text x="0" y="0" fill="black" font-family="Arial, Helvetica, sans-serif" font-size="18px" font-weight="normal" font-style="normal" dominant-baseline="middle" text-anchor="middle" transform="translate(40 40)">["d"]</text></g><g transform="translate(170 0)"><ellipse cx="40" cy="40" rx="39" ry="39" fill="hsl(303, 60%, 80%)" stroke="black" stroke-width="2"></ellipse><text x="0" y="0" fill="black" font-family="Arial, Helvetica, sans-serif" font-size="18px" font-weight="normal" font-style="normal" dominant-baseline="middle" text-anchor="middle" transform="translate(40 40)">["b", "c"]</text></g><g transform="translate(20 0)"><ellipse cx="40" cy="40" rx="39" ry="39" fill="hsl(298, 60%, 80%)" stroke="black" stroke-width="2"></ellipse><text x="0" y="0" fill="black" font-family="Arial, Helvetica, sans-serif" font-size="18px" font-weight="normal" font-style="normal" dominant-baseline="middle" text-anchor="middle" transform="translate(40 40)">["a"]</text></g></g><g transform="translate(0 100)"><rect x="1" y="11" width="770.3094010767585" height="58" fill="white" stroke="black" stroke-width="2" rx="0"></rect><text x="386.15470053837925" y="40" fill="black" dominant-baseline="middle" text-anchor="middle" font-family="Arial, Helvetica, sans-serif" font-size="24px" font-weight="normal" font-style="normal" width="772.3094010767585">.flatMap(lst -&gt; lst.stream())</text></g><g transform="translate(0 200)"><g><line x1="0" y1="40" x2="740" y2="40" stroke="black" stroke-width="2"></line><polyline points="730,34.226497308103745 740,40 730,45.773502691896255" fill="none" stroke="black" stroke-width="2" stroke-linecap="square"></polyline></g><g transform="translate(659 0)"><line x1="0" y1="15" x2="0" y2="65" stroke="black" stroke-width="2"></line></g><g transform="translate(440 0)"><ellipse cx="40" cy="40" rx="39" ry="39" fill="hsl(25, 60%, 80%)" stroke="black" stroke-width="2"></ellipse><text x="0" y="0" fill="black" font-family="Arial, Helvetica, sans-serif" font-size="18px" font-weight="normal" font-style="normal" dominant-baseline="middle" text-anchor="middle" transform="translate(40 40)">"d"</text></g><g transform="translate(260 0)"><ellipse cx="40" cy="40" rx="39" ry="39" fill="hsl(175, 60%, 80%)" stroke="black" stroke-width="2"></ellipse><text x="0" y="0" fill="black" font-family="Arial, Helvetica, sans-serif" font-size="18px" font-weight="normal" font-style="normal" dominant-baseline="middle" text-anchor="middle" transform="translate(40 40)">"c"</text></g><g transform="translate(170 0)"><ellipse cx="40" cy="40" rx="39" ry="39" fill="hsl(214, 60%, 80%)" stroke="black" stroke-width="2"></ellipse><text x="0" y="0" fill="black" font-family="Arial, Helvetica, sans-serif" font-size="18px" font-weight="normal" font-style="normal" dominant-baseline="middle" text-anchor="middle" transform="translate(40 40)">"b"</text></g><g transform="translate(20 0)"><ellipse cx="40" cy="40" rx="39" ry="39" fill="hsl(324, 60%, 80%)" stroke="black" stroke-width="2"></ellipse><text x="0" y="0" fill="black" font-family="Arial, Helvetica, sans-serif" font-size="18px" font-weight="normal" font-style="normal" dominant-baseline="middle" text-anchor="middle" transform="translate(40 40)">"a"</text></g></g></g></svg>
