
<svg xmlns="http://www.w3.org/2000/svg" viewBox="0 0 622.3094010767585 290" width="622.3094010767585" height="290"><rect x="0" y="0" width="622.3094010767585" height="290" fill="white"></rect><g transform="translate(25 25)"><g><g><line x1="0" y1="30" x2="570" y2="30" stroke="black" stroke-width="2"></line><polyline points="560,24.226497308103742 570,30 560,35.773502691896255" fill="none" stroke="black" stroke-width="2" stroke-linecap="square"></polyline></g><g transform="translate(509 0)"><line x1="0" y1="5" x2="0" y2="55" stroke="black" stroke-width="2"></line></g><g transform="translate(270 0)"><ellipse cx="30" cy="30" rx="29" ry="29" fill="hsl(175, 60%, 80%)" stroke="black" stroke-width="2"></ellipse><text x="0" y="0" fill="black" font-family="Arial, Helvetica, sans-serif" font-size="18px" font-weight="normal" font-style="normal" dominant-baseline="middle" text-anchor="middle" transform="translate(30 30)">"c"</text></g><g transform="translate(180 0)"><ellipse cx="30" cy="30" rx="29" ry="29" fill="hsl(214, 60%, 80%)" stroke="black" stroke-width="2"></ellipse><text x="0" y="0" fill="black" font-family="Arial, Helvetica, sans-serif" font-size="18px" font-weight="normal" font-style="normal" dominant-baseline="middle" text-anchor="middle" transform="translate(30 30)">"b"</text></g><g transform="translate(90 0)"><ellipse cx="30" cy="30" rx="29" ry="29" fill="hsl(324, 60%, 80%)" stroke="black" stroke-width="2"></ellipse><text x="0" y="0" fill="black" font-family="Arial, Helvetica, sans-serif" font-size="18px" font-weight="normal" font-style="normal" dominant-baseline="middle" text-anchor="middle" transform="translate(30 30)">"a"</text></g></g><g transform="translate(0 80)"><rect x="1" y="11" width="570.3094010767585" height="58" fill="white" stroke="black" stroke-width="2" rx="0"></rect><text x="286.15470053837925" y="40" fill="black" dominant-baseline="middle" text-anchor="middle" font-family="Arial, Helvetica, sans-serif" font-size="24px" font-weight="normal" font-style="normal" width="572.3094010767585">.peek(str -&gt; System.out.println(str + "f"))</text></g><g transform="translate(0 180)"><g><line x1="0" y1="30" x2="570" y2="30" stroke="black" stroke-width="2"></line><polyline points="560,24.226497308103742 570,30 560,35.773502691896255" fill="none" stroke="black" stroke-width="2" stroke-linecap="square"></polyline></g><g transform="translate(509 0)"><line x1="0" y1="5" x2="0" y2="55" stroke="black" stroke-width="2"></line></g><g transform="translate(270 0)"><ellipse cx="30" cy="30" rx="29" ry="29" fill="hsl(175, 60%, 80%)" stroke="black" stroke-width="2"></ellipse><text x="0" y="0" fill="black" font-family="Arial, Helvetica, sans-serif" font-size="18px" font-weight="normal" font-style="normal" dominant-baseline="middle" text-anchor="middle" transform="translate(30 30)">"c"</text></g><g transform="translate(180 0)"><ellipse cx="30" cy="30" rx="29" ry="29" fill="hsl(214, 60%, 80%)" stroke="black" stroke-width="2"></ellipse><text x="0" y="0" fill="black" font-family="Arial, Helvetica, sans-serif" font-size="18px" font-weight="normal" font-style="normal" dominant-baseline="middle" text-anchor="middle" transform="translate(30 30)">"b"</text></g><g transform="translate(90 0)"><ellipse cx="30" cy="30" rx="29" ry="29" fill="hsl(324, 60%, 80%)" stroke="black" stroke-width="2"></ellipse><text x="0" y="0" fill="black" font-family="Arial, Helvetica, sans-serif" font-size="18px" font-weight="normal" font-style="normal" dominant-baseline="middle" text-anchor="middle" transform="translate(30 30)">"a"</text></g></g></g></svg>
